<svg width="18" height="20" viewBox="0 0 18 20" fill="none" xmlns="http://www.w3.org/2000/svg">
<path opacity="0.4" d="M14.3905 5.29997V6.87997C13.9231 6.72097 13.4049 6.62997 12.8765 6.62997H12.8663V5.29997C12.8663 3.20998 11.1389 1.49999 9.00498 1.49999H8.99482C6.86093 1.49999 5.13349 3.19098 5.12333 5.27997V6.62997H5.11317C4.58478 6.62997 4.07671 6.72097 3.59912 6.87997V5.29997C3.60928 2.36099 6.02769 0 8.98466 0H9.01514C11.9721 0 14.3905 2.37999 14.3905 5.29997Z" fill="#8C8C8C"/>
<path fill-rule="evenodd" clip-rule="evenodd" d="M12.8766 6.63007C13.405 6.63007 13.9232 6.72107 14.3906 6.88006C16.1993 7.50006 17.5 9.18105 17.5 11.17V15.46C17.5 17.96 15.4271 20 12.8766 20H5.11327C2.57292 20 0.5 17.96 0.5 15.46V11.17C0.5 9.18105 1.80066 7.50006 3.59922 6.88006C4.07681 6.72107 4.58488 6.63007 5.11327 6.63007H12.8766ZM8.99492 15.3C9.49283 15.3 9.88912 14.91 9.88912 14.42V12.2C9.88912 11.721 9.49283 11.33 8.99492 11.33C8.50717 11.33 8.11088 11.721 8.11088 12.2V14.42C8.11088 14.91 8.50717 15.3 8.99492 15.3Z" fill="#8C8C8C"/>
</svg>
