<svg width="24" height="24" viewBox="0 0 24 24" fill="none" xmlns="http://www.w3.org/2000/svg">
<g clip-path="url(#clip0_276_2557)">
<path d="M20 5C21.6569 5 23 3.88071 23 2.5C23 1.11929 21.6569 0 20 0C18.3431 0 17 1.11929 17 2.5C17 3.88071 18.3431 5 20 5Z" fill="#8C8C8C"/>
<path d="M11.5 15C12.8807 15 14 13.8807 14 12.5C14 11.1193 12.8807 10 11.5 10C10.1193 10 9 11.1193 9 12.5C9 13.8807 10.1193 15 11.5 15Z" fill="#8C8C8C"/>
<path d="M20.6252 21.8168L18.2701 19.4617C19.2001 18.1685 19.7544 16.5879 19.7544 14.8772C19.7544 10.534 16.2209 7 11.877 7C7.53322 7 4 10.534 4 14.8772C4 19.2204 7.5335 22.7544 11.8773 22.7544C13.5881 22.7544 15.1687 22.2002 16.4616 21.2702L18.8167 23.6253C19.3164 24.1249 20.1256 24.1249 20.6252 23.6253C21.1249 23.1259 21.1249 22.3164 20.6252 21.8168ZM5.27902 14.8772C5.27902 11.2392 8.23895 8.279 11.8773 8.279C15.5157 8.279 18.4756 11.2392 18.4756 14.8772C18.4756 18.5152 15.5157 21.4754 11.8773 21.4754C8.23895 21.4754 5.27902 18.5152 5.27902 14.8772Z" fill="#8C8C8C"/>
<path d="M13.4197 16C12.8673 16.3708 12.2081 16.59 11.498 16.59C10.788 16.59 10.129 16.3708 9.57631 16C8.7325 16.561 8.13771 17.4773 8.00345 18.5417C7.97316 18.7821 8.14567 19 8.38389 19H14.6145C14.835 19 15.0229 18.8101 14.9977 18.5869C14.875 17.5031 14.2754 16.5688 13.4197 16Z" fill="#8C8C8C"/>
<path d="M22.2661 6C21.6584 6.37075 20.9332 6.58997 20.152 6.58997C19.3709 6.58997 18.6459 6.37075 18.0379 6C17.6315 6.2456 17.2821 6.56253 17 6.92702C17.998 7.4629 18.8752 8.16652 19.5872 9H23.5777C23.8397 9 24.0295 8.78236 23.9962 8.54172C23.8491 7.47727 23.1944 6.56123 22.2661 6Z" fill="#8C8C8C"/>
<path d="M4 5C5.65685 5 7 3.88071 7 2.5C7 1.11929 5.65685 0 4 0C2.34315 0 1 1.11929 1 2.5C1 3.88071 2.34315 5 4 5Z" fill="#8C8C8C"/>
<path d="M1.73386 6C2.34161 6.37075 3.06684 6.58997 3.848 6.58997C4.62915 6.58997 5.3541 6.37075 5.96213 6C6.36853 6.2456 6.71787 6.56253 7 6.92702C6.00196 7.4629 5.12478 8.16652 4.41282 9H0.422334C0.160255 9 -0.0295261 8.78236 0.00379853 8.54172C0.150935 7.47727 0.805567 6.56123 1.73386 6Z" fill="#8C8C8C"/>
</g>
<defs>
<clipPath id="clip0_276_2557">
<rect width="24" height="24" fill="white"/>
</clipPath>
</defs>
</svg>
